# AST/ASF file generated using VICON BodyLanguage
# -----------------------------------------------
:version 1.10
:name VICON
:units
  mass 1.0
  length 0.45
  angle deg
:documentation
   .ast/.asf automatically generated from VICON data using
   VICON BodyBuilder and BodyLanguage model FoxedUp or BRILLIANT.MOD
:root
   order TX TY TZ RX RY RZ
   axis XYZ
   position 0 0 0  
   orientation 0 0 0 
:bonedata
  begin
     id 1 
     name lhipjoint
     direction 0.710087 -0.641647 0.289942 
     length 2.79038 
     axis 0 0 0  XYZ
  end
  begin
     id 2 
     name lfemur
     direction 0.34202 -0.939693 0  
     length 7.2706  
     axis 0 0 20  XYZ
    dof rx ry rz
    limits (-160.0 20.0)
           (-70.0 70.0)
           (-60.0 70.0)
  end
  begin
     id 3 
     name ltibia
     direction 0.34202 -0.939693 0   
     length 7.86328   
     axis 0 0 20   XYZ
    dof rx
    limits (-10.0 170.0)
  end
  begin
     id 4 
     name lfoot
     direction 0.0541246 -0.148706 0.987399   
     length 2.37542   
     axis -90 7.62852e-016 20   XYZ
    dof rx rz
    limits (-45.0 90.0)
           (-70.0 20.0)
  end
  begin
     id 5 
     name ltoes
     direction 1.53554e-011 -4.21866e-011 1   
     length 1.19593   
     axis -90 7.62852e-016 20   XYZ
    dof rx
    limits (-90.0 20.0)
  end
  begin
     id 6 
     name rhipjoint
     direction -0.675762 -0.671724 0.303533   
     length 2.66544  
     axis 0 0 0  XYZ 
  end
  begin
     id 7 
     name rfemur
     direction -0.34202 -0.939693 0   
     length 8.11844   
     axis 0 0 -20   XYZ
    dof rx ry rz
    limits (-160.0 20.0)
           (-70.0 70.0)
           (-70.0 60.0)
  end
  begin
     id 8 
     name rtibia
     direction -0.34202 -0.939693 0   
     length 7.97082   
     axis 0 0 -20   XYZ
    dof rx
    limits (-10.0 170.0)
 end
 begin
     id 9 
     name rfoot
     direction -0.0726228 -0.199474 0.977208   
     length 2.19677  
     axis -90 -7.62852e-016 -20   XYZ
    dof rx rz
    limits (-45.0 90.0)
           (-20.0 70.0)
  end
  begin
     id 10 
     name rtoes
     direction -1.53508e-011 -4.21913e-011 1   
     length 1.10438   
     axis -90 -7.62852e-016 -20   XYZ
    dof rx
    limits (-90.0 20.0)
  end
  begin
     id 11 
     name lowerback
     direction -0.00404436 0.999673 -0.0252643   
     length 2.03972   
     axis 0 0 0   XYZ
    dof rx ry rz
    limits (-20.0 45.0)
           (-30.0 30.0)
           (-30.0 30.0)
  end
  begin
     id 12 
     name upperback
     direction 0.00744643 0.999969 0.00242763   
     length 2.04273   
     axis 0 0 0   XYZ
    dof rx ry rz
    limits (-20.0 45.0)
           (-30.0 30.0)
           (-30.0 30.0)
  end
  begin
     id 13 
     name thorax
     direction 0.00846113 0.999862 0.0143204   
     length 2.03752   
     axis 0 0 0   XYZ
    dof rx ry rz
    limits (-20.0 45.0)
           (-30.0 30.0)
           (-30.0 30.0)
  end
  begin
     id 14 
     name lowerneck
     direction 0.0328213 0.990857 0.130862   
     length 1.37497   
     axis 0 0 0   XYZ
    dof rx ry rz
    limits (-20.0 45.0)
           (-30.0 30.0)
           (-30.0 30.0)
  end
  begin
     id 15 
     name upperneck
     direction -0.0302832 0.999496 0.00956452   
     length 1.35926   
     axis 0 0 0   XYZ
    dof rx ry rz
    limits (-20.0 45.0)
           (-30.0 30.0)
           (-30.0 30.0)
  end
  begin
     id 16
     name head
     direction -0.0130455 0.999856 -0.0108809  
     length 1.44454  
     axis 0 0 0   XYZ
    dof rx ry rz
    limits (-20.0 45.0)
           (-30.0 30.0)
           (-30.0 30.0)
  end
  begin
     id 17 
     name lclavicle
     direction 0.952957 0.278766 0.119006  
     length 3.10112  
     axis 0 0 0   XYZ
    dof ry rz
    limits (-20.0 10.0)
           (0.0 20.0)
  end
  begin
     id 18 
     name lhumerus
     direction 1 -4.48972e-011 -1.63238e-028   
     length 5.82845   
     axis -180 -30 -90   XYZ
    dof rx ry rz
    limits (-60.0 90.0)
           (-90.0 90.0)
           (-90.0 90.0)
  end
  begin
     id 19
     name lradius
     direction 1 -4.48959e-011 1.45401e-026   
     length 3.49691   
     axis -180 -30 -90   XYZ
    dof rx
    limits (-10.0 170.0)
  end
  begin
     id 20
     name lwrist
     direction 1 -4.48945e-011 2.98015e-026   
     length 1.74845   
     axis -1.7599e-014 90 90   XYZ
    dof ry
    limits (-180.0 0.0)
 end
  begin
     id 21 
     name lhand
     direction 1 -4.4902e-011 5.9603e-026   
     length 0.674998   
     axis -3.80318e-014 90 90   XYZ
    dof rx rz
    limits (-90.0 90.0)
           (-45.0 45.0)
  end
  begin
     id 22 
     name lfingers
     direction 1 -4.48979e-011 1.19206e-025   
     length 0.544201   
     axis -7.60636e-014 90 90   XYZ
    dof rx
    limits (0.0 90.0)
  end
  begin
     id 23
     name lthumb
     direction 0.707107 -6.34941e-011 0.707107   
     length 0.781367   
     axis -90 45 2.85299e-015   XYZ
    dof rx rz
    limits (-45.0 45.0)
           (-45.0 45.0)
  end
  begin
     id 24 
     name rclavicle
     direction -0.967632 0.241887 0.0719654   
     length 3.53012  
     axis 0 0 0   XYZ 
    dof ry rz
    limits (-10.0 20.0)
           (-20.0 0.0)
  end
  begin
     id 25 
     name rhumerus
     direction -1 -4.4897e-011 6.87619e-028  
     length 5.45859   
     axis -180 30 90   XYZ
    dof rx ry rz
    limits (-90.0 60.0)
           (-90.0 90.0)
           (-90.0 90.0)
  end
  begin
     id 26 
     name rradius
     direction -1 -4.48967e-011 1.68055e-026   
     length 3.58491   
     axis -180 30 90   XYZ
    dof rx
    limits (-10.0 170.0)
  end
  begin
     id 27 
     name rwrist
     direction -1 -4.48976e-011 2.98015e-026   
     length 1.79245   
     axis -1.7599e-014 -90 -90   XYZ
    dof ry
    limits (-180.0 0.0)
  end
  begin
     id 28
     name rhand
     direction -1 -4.48996e-011 5.9603e-026   
     length 0.683735   
     axis -3.80318e-014 -90 -90   XYZ
    dof rx rz
    limits (-90.0 90.0)
           (-45.0 45.0)
  end
  begin
     id 29
     name rfingers
     direction -1 -4.48924e-011 1.19206e-025   
     length 0.551245   
     axis -7.60636e-014 -90 -90   XYZ
    dof rx
    limits (0.0 90.0)
  end
  begin
     id 30
     name rthumb
     direction -0.707107 -6.3492e-011 0.707107   
     length 0.791481   
     axis -90 -45 -2.85299e-015   XYZ
    dof rx rz
    limits (-45.0 45.0)
           (-45.0 45.0)
  end
:hierarchy
  begin
    root lhipjoint rhipjoint lowerback
    lhipjoint lfemur
    lfemur ltibia
    ltibia lfoot
    lfoot ltoes
    rhipjoint rfemur
    rfemur rtibia
    rtibia rfoot
    rfoot rtoes
    lowerback upperback
    upperback thorax
    thorax lowerneck lclavicle rclavicle
    lowerneck upperneck
    upperneck head
    lclavicle lhumerus
    lhumerus lradius
    lradius lwrist
    lwrist lhand lthumb
    lhand lfingers
    rclavicle rhumerus
    rhumerus rradius
    rradius rwrist
    rwrist rhand rthumb
    rhand rfingers
  end

#!OML:ASF F:\VICON\USERDATA\INSTALL\rory3\rory3.ASF
:FULLY-SPECIFIED
:DEGREES
844
root 14.6766 16.7629 -37.9744 -170.304 -105.095 154.367
lowerback 13.6742 1.97072 -0.0591513
upperback 0.508584 2.6701 1.31539
thorax -7.2034 1.30961 0.904815
lowerneck -0.478449 17.3176 10.5497
upperneck -0.135488 23.1533 -7.71097
head 2.32169 11.5398 -3.30105
rclavicle -8.88567e-014 -7.15625e-015
rhumerus -31.6123 22.4852 -84.3911
rradius 119.328
rwrist -49.762
rhand -21.7367 53.2222
rfingers 7.12502
rthumb 4.66301 23.2936
lclavicle -8.88567e-014 -7.15625e-015
lhumerus -12.3201 -45.143 84.3553
lradius 114.782
lwrist 50.9051
lhand 156.074 62.9542
lfingers 7.12502
lthumb -177.451 -687.01
rfemur 3.12812 -4.84205 17.5658
rtibia 51.1452
rfoot -30.8218 7.07746
rtoes -16.6296
lfemur 6.38851 -11.1975 -4.79408
ltibia 41.7869
lfoot -23.4423 -1.45577
ltoes -12.1866
845
root 14.685 16.8177 -38.0879 -170.734 -104.061 155.391
lowerback 13.7045 1.97512 -0.0397223
upperback 0.540013 2.67292 1.25413
thorax -7.18275 1.30867 0.828052
lowerneck -0.261115 17.8481 10.6427
upperneck -0.501379 23.8793 -8.06092
head 2.29042 11.9018 -3.39023
rclavicle -2.22639e-014 -2.38542e-015
rhumerus -31.766 22.791 -84.7966
rradius 118.474
rwrist -50.1884
rhand -22.9993 55.0511
rfingers 7.12502
rthumb 3.4438 25.0992
lclavicle -2.22639e-014 -2.38542e-015
lhumerus -9.42722 -46.374 81.6334
lradius 113.478
lwrist 50.4022
lhand 156.709 61.8467
lfingers 7.12502
lthumb -176.838 -688.11
rfemur 2.34952 -3.81572 17.5887
rtibia 51.0883
rfoot -30.8022 8.04729
rtoes -11.7303
lfemur 6.14389 -10.9556 -5.373
ltibia 41.6611
lfoot -22.7438 0.878268
ltoes -17.007
846
root 14.6935 16.8753 -38.1894 -171.453 -103.272 156.621
lowerback 13.8697 1.78772 0.292075
upperback 0.581906 2.46692 1.15646
thorax -7.20771 1.1941 0.574103
lowerneck 0.200198 18.4137 10.6578
upperneck -1.08796 24.6677 -8.55977
head 2.16375 12.3007 -3.54461
rclavicle 4.22417e-014 -7.95139e-016
rhumerus -31.5636 22.8031 -85.0471
rradius 117.762
rwrist -51.118
rhand -23.8707 54.6558
rfingers 7.12502
rthumb 2.60222 24.6919
lclavicle 4.22417e-014 -7.95139e-016
lhumerus -6.44135 -47.2458 78.2776
lradius 112.66
lwrist 49.7792
lhand 162.169 62.2823
lfingers 7.12502
lthumb -171.566 -687.529
rfemur 1.69234 -3.19095 17.5409
rtibia 51.0156
rfoot -30.7268 8.08068
rtoes -12.0063
lfemur 5.63154 -10.7795 -5.8928
ltibia 41.8811
lfoot -21.5528 3.65545
ltoes -24.1615
847
root 14.6994 16.9276 -38.2849 -170.629 -102.45 156.487
lowerback 13.9282 1.57909 0.981016
upperback 0.463397 2.29144 1.0024
thorax -7.33131 1.0822 0.0537031
lowerneck 0.464021 19.0089 10.8369
upperneck -1.37266 25.4839 -8.77874
head 2.1586 12.7112 -3.59395
rclavicle -5.19325e-014 -2.18663e-014
rhumerus -31.3991 22.5149 -85.2583
rradius 117.23
rwrist -52.0085
rhand -24.0154 56.8652
rfingers 7.12502
rthumb 2.46248 26.8997
lclavicle -5.19325e-014 -2.18663e-014
lhumerus -3.21976 -48.0263 74.1558
lradius 112.102
lwrist 49.5971
lhand 168.894 63.4555
lfingers 7.12502
lthumb -165.081 -685.987
rfemur 0.733315 -2.52209 17.8418
rtibia 51.0209
rfoot -30.9638 7.87258
rtoes -12.6304
lfemur 4.82196 -10.8618 -6.10044
ltibia 42.4229
lfoot -20.5246 4.86749
ltoes -25.4559
848
root 14.709 16.9735 -38.3733 -172.541 -101.736 159.026
lowerback 14.0112 1.32881 1.10654
upperback 0.439716 1.96836 0.837655
thorax -7.39368 0.917171 -0.129813
lowerneck 0.716001 19.5944 11.0751
upperneck -1.7082 26.2852 -9.59387
head 2.01363 13.1014 -3.42751
rclavicle -9.44227e-016 1.15295e-014
rhumerus -31.0853 22.2269 -85.0333
rradius 116.805
rwrist -52.7369
rhand -24.1288 58.5724
rfingers 7.12502
rthumb 2.35297 28.6056
lclavicle -9.44227e-016 1.15295e-014
lhumerus 0.26395 -48.3973 69.7333
lradius 111.636
lwrist 48.9846
lhand 174.236 64.3956
lfingers 7.12502
lthumb -159.941 -684.589
rfemur -0.0534279 -2.05291 17.4865
rtibia 51.0777
rfoot -31.1188 8.50219
rtoes -9.09328
lfemur 3.87841 -11.1424 -6.8786
ltibia 43.2821
lfoot -19.5291 5.16962
ltoes -22.8367
849
root 14.7365 17.0094 -38.4576 -172.618 -100.831 159.511
lowerback 14.6263 1.12365 1.48219
upperback 0.417256 1.77901 1.01045
thorax -7.75903 0.809162 -0.1335
lowerneck 0.803929 20.1176 10.9615
upperneck -1.90491 26.9986 -10.1156
head 2.06689 13.457 -3.49469
rclavicle 1.29707e-014 -1.39149e-015
rhumerus -30.4373 21.6223 -83.9929
rradius 116.499
rwrist -53.7368
rhand -23.4379 59.0633
rfingers 7.12502
rthumb 3.02019 29.1049
lclavicle 1.29707e-014 -1.39149e-015
lhumerus 3.99074 -48.513 64.8258
lradius 111.299
lwrist 47.9853
lhand 174.434 64.3469
lfingers 7.12502
lthumb -159.751 -684.618
rfemur -0.902684 -1.7861 17.4317
rtibia 51.2136
rfoot -30.8739 8.85845
rtoes -7.22961
lfemur 2.85465 -10.7037 -6.93509
ltibia 44.4108
lfoot -18.0108 5.63845
ltoes -22.5053
